<svg xmlns="http://www.w3.org/2000/svg" viewBox="0 0 715.4521 715.4521"><rect width="715.4521" height="715.4521" style="fill:none"/><path d="M681.28006,581.36741c-.07056,38.37586-13.687,51.21052-52.95078,51.22217q-274.97085.12219-549.94082-.01165c-37.70139-.01165-51.67036-13.13721-51.74092-50.02362q-.38766-225.78711.01176-451.57408C26.72986,94.01229,40.64,80.99148,78.38846,80.945q137.47638-.20943,274.96424-.04651,137.494,0,274.97658.03487c39.3108.04652,52.89226,12.823,52.95078,51.19887Q681.63286,356.74979,681.28006,581.36741Z" style="fill:#323232"/><path d="M615.80442,225.46676a24.08366,24.08366,0,0,0-5.85188-6.92972,55.39011,55.39011,0,0,0-12.96073-7.96926,120.86523,120.86523,0,0,0-23.35613-7.68689,163.42846,163.42846,0,0,0-18.27436-3.19538c-3.811-.43636-7.62267-.847-11.44685-1.12931-3.311-.25667-6.63451-.32082-9.958-.462-.97563-.05138-1.93809-.06423-2.91309-.10269a1.79977,1.79977,0,0,1-.35968-.077,1.72427,1.72427,0,0,1,.16731-.34651c.2049-.25668.423-.50051.62848-.7571A134.81546,134.81546,0,0,1,552.692,175.94464a57.82265,57.82265,0,0,1,12.75645-7.674,20.16874,20.16874,0,0,1,8.5206-1.88648,7.87258,7.87258,0,0,1,7.23793,4.50436,15.4418,15.4418,0,0,1,1.20622,3.19538,33.85939,33.85939,0,0,1,.334,12.80721c-.20552,1.59135-.552,3.16977-.73187,4.761a2.91681,2.91681,0,0,0,2.41306,3.27237,2.98378,2.98378,0,0,0,3.51589-2.4382,61.483,61.483,0,0,0,1.24506-11.47262,30.39018,30.39018,0,0,0-1.6298-10.71552c-2.37421-6.4806-7.53306-10.04811-14.437-9.9455a25.03076,25.03076,0,0,0-7.44345,1.386,51.709,51.709,0,0,0-12.47324,6.41645,117.81451,117.81451,0,0,0-21.57218,19.31351c-2.96448,3.31091-5.73658,6.80142-8.5983,10.20217a1.31563,1.31563,0,0,1-.7444.43635c-2.98954.19245-5.97971.28229-8.96988.55181-3.72141.34643-7.4303.82125-11.15171,1.2576-.8854.10268-.8854.14114-1.07839-.74433A92.591,92.591,0,0,1,499.025,185.133a45.10884,45.10884,0,0,1,.616-12.03727,16.80453,16.80453,0,0,1,2.75895-6.80142,7.69689,7.69689,0,0,1,5.65951-3.25953,13.89091,13.89091,0,0,1,6.13385,1.00092,35.78349,35.78349,0,0,1,8.958,5.03056c1.116.82125,2.19437,1.70672,3.31036,2.5152a2.721,2.721,0,0,0,2.59227.34651,2.985,2.985,0,0,0,.886-5.21015,50.97818,50.97818,0,0,0-10.66484-7.071,23.443,23.443,0,0,0-10.26632-2.68211,13.59384,13.59384,0,0,0-11.06149,5.23585,20.19887,20.19887,0,0,0-3.72142,7.59706,49.79008,49.79008,0,0,0-1.12977,16.9266,96.87637,96.87637,0,0,0,2.06655,13.57723c.17921.80848.17921.80848-.61595.97531a99.804,99.804,0,0,0-11.24195,2.93871,58.723,58.723,0,0,0-14.078,6.44214,24.9474,24.9474,0,0,0-7.42968,7.04525,13.91,13.91,0,0,0-2.336,10.17649,16.53755,16.53755,0,0,0,3.18254,7.18647,32.90467,32.90467,0,0,0,8.8552,7.94357c1.77079,1.11645,3.593,2.14307,5.42767,3.144a3.003,3.003,0,1,0,2.84918-5.28715c-.51319-.29513-1.05207-.56465-1.56589-.84694a41.827,41.827,0,0,1-7.41714-5.05617,17.49995,17.49995,0,0,1-4.70958-5.89033,7.74878,7.74878,0,0,1,.32083-7.35323,14.0522,14.0522,0,0,1,2.78463-3.42636,32.43932,32.43932,0,0,1,8.66221-5.50537,86.41993,86.41993,0,0,1,18.505-5.74912c.475-.10268.50066.16684.59026.47482a175.46491,175.46491,0,0,0,6.59629,19.36488,1.204,1.204,0,0,1-.05138.84694c-.475,1.001-1.01385,1.96347-1.51388,2.93878a147.92982,147.92982,0,0,0-11.51139,29.05363c-1.77079,6.67313-2.977,13.42325-2.57974,20.36582a25.31188,25.31188,0,0,0,1.97632,8.906,13.94633,13.94633,0,0,0,10.48438,8.61091,20.12082,20.12082,0,0,0,9.27879-.60311,43.03277,43.03277,0,0,0,11.11286-4.97917q2.59886-1.57846,5.04356-3.37506a2.6486,2.6486,0,0,0,.975-2.9644,2.8626,2.8626,0,0,0-2.20691-2.2073,3.19014,3.19014,0,0,0-2.63049.5775c-2.13046,1.36028-4.23524,2.77187-6.44277,4.0167a27.50978,27.50978,0,0,1-10.65106,3.72157c-4.45267.44912-7.815-1.19352-9.57329-5.54382a22.2527,22.2527,0,0,1-1.41175-8.22593,57.19549,57.19549,0,0,1,1.7451-13.92367,135.89068,135.89068,0,0,1,10.93428-29.05371c.07645-.1283.17921-.24383.26945-.37213a2.68682,2.68682,0,0,1,.282.385c1.55273,3.16969,3.02839,6.37792,4.65819,9.4963,7.41777,14.24457,16.13136,27.60359,27.18032,39.34573a75.8651,75.8651,0,0,0,14.52662,12.3324c3.82418,2.41259,7.85388,4.38883,12.42247,4.915,5.90326.68011,10.66422-1.309,14.03912-6.27531a25.25485,25.25485,0,0,0,3.81165-11.15179,63.57856,63.57856,0,0,0-.29513-16.73408,120.61586,120.61586,0,0,0-3.69635-17.4271,187.3131,187.3131,0,0,0-11.51077-29.99049,2.76107,2.76107,0,0,0-.38536-.61595,3.00518,3.00518,0,0,0-5.23592.91108,3.34652,3.34652,0,0,0,.32082,2.618,183.85074,183.85074,0,0,1,7.174,16.96506c3.81164,10.45885,6.78865,21.123,7.77681,32.26194a48.57948,48.57948,0,0,1-.34651,12.65322,18.55363,18.55363,0,0,1-2.64366,7.19924,7.8113,7.8113,0,0,1-5.27414,3.55474,10.83552,10.83552,0,0,1-4.26093-.154,28.04761,28.04761,0,0,1-9.49622-4.36321,77.30952,77.30952,0,0,1-14.50093-12.94836,158.96824,158.96824,0,0,1-17.94037-24.575A205.93993,205.93993,0,0,1,510.67738,228.29a1.11855,1.11855,0,0,1,0-1.11646,211.9583,211.9583,0,0,1,14.66823-22.59872,1.14434,1.14434,0,0,1,1.03892-.52619c2.2846.02569,4.58174.01284,6.32684.01284a220.36778,220.36778,0,0,1,23.6638,1.82233c5.82619.79563,11.601,1.8351,17.32442,3.20823a114.21555,114.21555,0,0,1,19.67294,6.46775,52.37815,52.37815,0,0,1,12.21695,7.17355,18.54744,18.54744,0,0,1,5.17138,6.10847,7.84805,7.84805,0,0,1-.43612,8.11041,14.62694,14.62694,0,0,1-1.43743,1.88648,26.26427,26.26427,0,0,1-8.05879,5.78765c-1.77079.88539-3.61865,1.59126-5.4026,2.46389a2.987,2.987,0,0,0,2.48951,5.42829c2.554-1.1293,5.13316-2.2586,7.58444-3.58035a26.80975,26.80975,0,0,0,8.96988-7.37892C618.26824,236.49026,618.80774,231.11327,615.80442,225.46676Zm-98.12033-20.60963c-1.46312,2.15591-2.977,4.27337-4.38875,6.44214-1.79648,2.77187-3.50336,5.59512-5.26161,8.39269-.07708.12837-.141.26952-.23059.39781a2.58184,2.58184,0,0,1-.27007.25668c-.05076-.08984-.1153-.17968-.16668-.26944a.72935.72935,0,0,1-.06391-.17968q-2.1759-6.58325-4.32484-13.16657c-.26944-.82133-.23122-.84694.6548-.93678,4.59365-.47481,9.18793-.93685,13.79537-1.41167.03823,0,.07645-.01284.17921-.01284a1.45861,1.45861,0,0,1,.26944.03854A2.364,2.364,0,0,1,517.68409,204.85713ZM539.141,221.12924a9.06079,9.06079,0,1,0,8.906,9.17555A9.0638,9.0638,0,0,0,539.141,221.12924Zm0,0a9.06079,9.06079,0,1,0,8.906,9.17555A9.0638,9.0638,0,0,0,539.141,221.12924Zm76.66344,4.33752a24.08366,24.08366,0,0,0-5.85188-6.92972,55.39011,55.39011,0,0,0-12.96073-7.96926,120.86523,120.86523,0,0,0-23.35613-7.68689,163.42846,163.42846,0,0,0-18.27436-3.19538c-3.811-.43636-7.62267-.847-11.44685-1.12931-3.311-.25667-6.63451-.32082-9.958-.462-.97563-.05138-1.93809-.06423-2.91309-.10269a1.79977,1.79977,0,0,1-.35968-.077,1.72427,1.72427,0,0,1,.16731-.34651c.2049-.25668.423-.50051.62848-.7571A134.81546,134.81546,0,0,1,552.692,175.94464a57.82265,57.82265,0,0,1,12.75645-7.674,20.16874,20.16874,0,0,1,8.5206-1.88648,7.87258,7.87258,0,0,1,7.23793,4.50436,15.4418,15.4418,0,0,1,1.20622,3.19538,33.85939,33.85939,0,0,1,.334,12.80721c-.20552,1.59135-.552,3.16977-.73187,4.761a2.91681,2.91681,0,0,0,2.41306,3.27237,2.98378,2.98378,0,0,0,3.51589-2.4382,61.483,61.483,0,0,0,1.24506-11.47262,30.39018,30.39018,0,0,0-1.6298-10.71552c-2.37421-6.4806-7.53306-10.04811-14.437-9.9455a25.03076,25.03076,0,0,0-7.44345,1.386,51.709,51.709,0,0,0-12.47324,6.41645,117.81451,117.81451,0,0,0-21.57218,19.31351c-2.96448,3.31091-5.73658,6.80142-8.5983,10.20217a1.31563,1.31563,0,0,1-.7444.43635c-2.98954.19245-5.97971.28229-8.96988.55181-3.72141.34643-7.4303.82125-11.15171,1.2576-.8854.10268-.8854.14114-1.07839-.74433A92.591,92.591,0,0,1,499.025,185.133a45.10884,45.10884,0,0,1,.616-12.03727,16.80453,16.80453,0,0,1,2.75895-6.80142,7.69689,7.69689,0,0,1,5.65951-3.25953,13.89091,13.89091,0,0,1,6.13385,1.00092,35.78349,35.78349,0,0,1,8.958,5.03056c1.116.82125,2.19437,1.70672,3.31036,2.5152a2.721,2.721,0,0,0,2.59227.34651,2.985,2.985,0,0,0,.886-5.21015,50.97818,50.97818,0,0,0-10.66484-7.071,23.443,23.443,0,0,0-10.26632-2.68211,13.59384,13.59384,0,0,0-11.06149,5.23585,20.19887,20.19887,0,0,0-3.72142,7.59706,49.79008,49.79008,0,0,0-1.12977,16.9266,96.87637,96.87637,0,0,0,2.06655,13.57723c.17921.80848.17921.80848-.61595.97531a99.804,99.804,0,0,0-11.24195,2.93871,58.723,58.723,0,0,0-14.078,6.44214,24.9474,24.9474,0,0,0-7.42968,7.04525,13.91,13.91,0,0,0-2.336,10.17649,16.53755,16.53755,0,0,0,3.18254,7.18647,32.90467,32.90467,0,0,0,8.8552,7.94357c1.77079,1.11645,3.593,2.14307,5.42767,3.144a3.003,3.003,0,1,0,2.84918-5.28715c-.51319-.29513-1.05207-.56465-1.56589-.84694a41.827,41.827,0,0,1-7.41714-5.05617,17.49995,17.49995,0,0,1-4.70958-5.89033,7.74878,7.74878,0,0,1,.32083-7.35323,14.0522,14.0522,0,0,1,2.78463-3.42636,32.43932,32.43932,0,0,1,8.66221-5.50537,86.41993,86.41993,0,0,1,18.505-5.74912c.475-.10268.50066.16684.59026.47482a175.46491,175.46491,0,0,0,6.59629,19.36488,1.204,1.204,0,0,1-.05138.84694c-.475,1.001-1.01385,1.96347-1.51388,2.93878a147.92982,147.92982,0,0,0-11.51139,29.05363c-1.77079,6.67313-2.977,13.42325-2.57974,20.36582a25.31188,25.31188,0,0,0,1.97632,8.906,13.94633,13.94633,0,0,0,10.48438,8.61091,20.12082,20.12082,0,0,0,9.27879-.60311,43.03277,43.03277,0,0,0,11.11286-4.97917q2.59886-1.57846,5.04356-3.37506a2.6486,2.6486,0,0,0,.975-2.9644,2.8626,2.8626,0,0,0-2.20691-2.2073,3.19014,3.19014,0,0,0-2.63049.5775c-2.13046,1.36028-4.23524,2.77187-6.44277,4.0167a27.50978,27.50978,0,0,1-10.65106,3.72157c-4.45267.44912-7.815-1.19352-9.57329-5.54382a22.2527,22.2527,0,0,1-1.41175-8.22593,57.19549,57.19549,0,0,1,1.7451-13.92367,135.89068,135.89068,0,0,1,10.93428-29.05371c.07645-.1283.17921-.24383.26945-.37213a2.68682,2.68682,0,0,1,.282.385c1.55273,3.16969,3.02839,6.37792,4.65819,9.4963,7.41777,14.24457,16.13136,27.60359,27.18032,39.34573a75.8651,75.8651,0,0,0,14.52662,12.3324c3.82418,2.41259,7.85388,4.38883,12.42247,4.915,5.90326.68011,10.66422-1.309,14.03912-6.27531a25.25485,25.25485,0,0,0,3.81165-11.15179,63.57856,63.57856,0,0,0-.29513-16.73408,120.61586,120.61586,0,0,0-3.69635-17.4271,187.3131,187.3131,0,0,0-11.51077-29.99049,2.76107,2.76107,0,0,0-.38536-.61595,3.00518,3.00518,0,0,0-5.23592.91108,3.34652,3.34652,0,0,0,.32082,2.618,183.85074,183.85074,0,0,1,7.174,16.96506c3.81164,10.45885,6.78865,21.123,7.77681,32.26194a48.57948,48.57948,0,0,1-.34651,12.65322,18.55363,18.55363,0,0,1-2.64366,7.19924,7.8113,7.8113,0,0,1-5.27414,3.55474,10.83552,10.83552,0,0,1-4.26093-.154,28.04761,28.04761,0,0,1-9.49622-4.36321,77.30952,77.30952,0,0,1-14.50093-12.94836,158.96824,158.96824,0,0,1-17.94037-24.575A205.93993,205.93993,0,0,1,510.67738,228.29a1.11855,1.11855,0,0,1,0-1.11646,211.9583,211.9583,0,0,1,14.66823-22.59872,1.14434,1.14434,0,0,1,1.03892-.52619c2.2846.02569,4.58174.01284,6.32684.01284a220.36778,220.36778,0,0,1,23.6638,1.82233c5.82619.79563,11.601,1.8351,17.32442,3.20823a114.21555,114.21555,0,0,1,19.67294,6.46775,52.37815,52.37815,0,0,1,12.21695,7.17355,18.54744,18.54744,0,0,1,5.17138,6.10847,7.84805,7.84805,0,0,1-.43612,8.11041,14.62694,14.62694,0,0,1-1.43743,1.88648,26.26427,26.26427,0,0,1-8.05879,5.78765c-1.77079.88539-3.61865,1.59126-5.4026,2.46389a2.987,2.987,0,0,0,2.48951,5.42829c2.554-1.1293,5.13316-2.2586,7.58444-3.58035a26.80975,26.80975,0,0,0,8.96988-7.37892C618.26824,236.49026,618.80774,231.11327,615.80442,225.46676Zm-98.12033-20.60963c-1.46312,2.15591-2.977,4.27337-4.38875,6.44214-1.79648,2.77187-3.50336,5.59512-5.26161,8.39269-.07708.12837-.141.26952-.23059.39781a2.58184,2.58184,0,0,1-.27007.25668c-.05076-.08984-.1153-.17968-.16668-.26944a.72935.72935,0,0,1-.06391-.17968q-2.1759-6.58325-4.32484-13.16657c-.26944-.82133-.23122-.84694.6548-.93678,4.59365-.47481,9.18793-.93685,13.79537-1.41167.03823,0,.07645-.01284.17921-.01284a1.45861,1.45861,0,0,1,.26944.03854A2.364,2.364,0,0,1,517.68409,204.85713Zm98.12033,20.60963a24.08366,24.08366,0,0,0-5.85188-6.92972,55.39011,55.39011,0,0,0-12.96073-7.96926,120.86523,120.86523,0,0,0-23.35613-7.68689,163.42846,163.42846,0,0,0-18.27436-3.19538c-3.811-.43636-7.62267-.847-11.44685-1.12931-3.311-.25667-6.63451-.32082-9.958-.462-.97563-.05138-1.93809-.06423-2.91309-.10269a1.79977,1.79977,0,0,1-.35968-.077,1.72427,1.72427,0,0,1,.16731-.34651c.2049-.25668.423-.50051.62848-.7571A134.81546,134.81546,0,0,1,552.692,175.94464a57.82265,57.82265,0,0,1,12.75645-7.674,20.16874,20.16874,0,0,1,8.5206-1.88648,7.87258,7.87258,0,0,1,7.23793,4.50436,15.4418,15.4418,0,0,1,1.20622,3.19538,33.85939,33.85939,0,0,1,.334,12.80721c-.20552,1.59135-.552,3.16977-.73187,4.761a2.91681,2.91681,0,0,0,2.41306,3.27237,2.98378,2.98378,0,0,0,3.51589-2.4382,61.483,61.483,0,0,0,1.24506-11.47262,30.39018,30.39018,0,0,0-1.6298-10.71552c-2.37421-6.4806-7.53306-10.04811-14.437-9.9455a25.03076,25.03076,0,0,0-7.44345,1.386,51.709,51.709,0,0,0-12.47324,6.41645,117.81451,117.81451,0,0,0-21.57218,19.31351c-2.96448,3.31091-5.73658,6.80142-8.5983,10.20217a1.31563,1.31563,0,0,1-.7444.43635c-2.98954.19245-5.97971.28229-8.96988.55181-3.72141.34643-7.4303.82125-11.15171,1.2576-.8854.10268-.8854.14114-1.07839-.74433A92.591,92.591,0,0,1,499.025,185.133a45.10884,45.10884,0,0,1,.616-12.03727,16.80453,16.80453,0,0,1,2.75895-6.80142,7.69689,7.69689,0,0,1,5.65951-3.25953,13.89091,13.89091,0,0,1,6.13385,1.00092,35.78349,35.78349,0,0,1,8.958,5.03056c1.116.82125,2.19437,1.70672,3.31036,2.5152a2.721,2.721,0,0,0,2.59227.34651,2.985,2.985,0,0,0,.886-5.21015,50.97818,50.97818,0,0,0-10.66484-7.071,23.443,23.443,0,0,0-10.26632-2.68211,13.59384,13.59384,0,0,0-11.06149,5.23585,20.19887,20.19887,0,0,0-3.72142,7.59706,49.79008,49.79008,0,0,0-1.12977,16.9266,96.87637,96.87637,0,0,0,2.06655,13.57723c.17921.80848.17921.80848-.61595.97531a99.804,99.804,0,0,0-11.24195,2.93871,58.723,58.723,0,0,0-14.078,6.44214,24.9474,24.9474,0,0,0-7.42968,7.04525,13.91,13.91,0,0,0-2.336,10.17649,16.53755,16.53755,0,0,0,3.18254,7.18647,32.90467,32.90467,0,0,0,8.8552,7.94357c1.77079,1.11645,3.593,2.14307,5.42767,3.144a3.003,3.003,0,1,0,2.84918-5.28715c-.51319-.29513-1.05207-.56465-1.56589-.84694a41.827,41.827,0,0,1-7.41714-5.05617,17.49995,17.49995,0,0,1-4.70958-5.89033,7.74878,7.74878,0,0,1,.32083-7.35323,14.0522,14.0522,0,0,1,2.78463-3.42636,32.43932,32.43932,0,0,1,8.66221-5.50537,86.41993,86.41993,0,0,1,18.505-5.74912c.475-.10268.50066.16684.59026.47482a175.46491,175.46491,0,0,0,6.59629,19.36488,1.204,1.204,0,0,1-.05138.84694c-.475,1.001-1.01385,1.96347-1.51388,2.93878a147.92982,147.92982,0,0,0-11.51139,29.05363c-1.77079,6.67313-2.977,13.42325-2.57974,20.36582a25.31188,25.31188,0,0,0,1.97632,8.906,13.94633,13.94633,0,0,0,10.48438,8.61091,20.12082,20.12082,0,0,0,9.27879-.60311,43.03277,43.03277,0,0,0,11.11286-4.97917q2.59886-1.57846,5.04356-3.37506a2.6486,2.6486,0,0,0,.975-2.9644,2.8626,2.8626,0,0,0-2.20691-2.2073,3.19014,3.19014,0,0,0-2.63049.5775c-2.13046,1.36028-4.23524,2.77187-6.44277,4.0167a27.50978,27.50978,0,0,1-10.65106,3.72157c-4.45267.44912-7.815-1.19352-9.57329-5.54382a22.2527,22.2527,0,0,1-1.41175-8.22593,57.19549,57.19549,0,0,1,1.7451-13.92367,135.89068,135.89068,0,0,1,10.93428-29.05371c.07645-.1283.17921-.24383.26945-.37213a2.68682,2.68682,0,0,1,.282.385c1.55273,3.16969,3.02839,6.37792,4.65819,9.4963,7.41777,14.24457,16.13136,27.60359,27.18032,39.34573a75.8651,75.8651,0,0,0,14.52662,12.3324c3.82418,2.41259,7.85388,4.38883,12.42247,4.915,5.90326.68011,10.66422-1.309,14.03912-6.27531a25.25485,25.25485,0,0,0,3.81165-11.15179,63.57856,63.57856,0,0,0-.29513-16.73408,120.61586,120.61586,0,0,0-3.69635-17.4271,187.3131,187.3131,0,0,0-11.51077-29.99049,2.76107,2.76107,0,0,0-.38536-.61595,3.00518,3.00518,0,0,0-5.23592.91108,3.34652,3.34652,0,0,0,.32082,2.618,183.85074,183.85074,0,0,1,7.174,16.96506c3.81164,10.45885,6.78865,21.123,7.77681,32.26194a48.57948,48.57948,0,0,1-.34651,12.65322,18.55363,18.55363,0,0,1-2.64366,7.19924,7.8113,7.8113,0,0,1-5.27414,3.55474,10.83552,10.83552,0,0,1-4.26093-.154,28.04761,28.04761,0,0,1-9.49622-4.36321,77.30952,77.30952,0,0,1-14.50093-12.94836,158.96824,158.96824,0,0,1-17.94037-24.575A205.93993,205.93993,0,0,1,510.67738,228.29a1.11855,1.11855,0,0,1,0-1.11646,211.9583,211.9583,0,0,1,14.66823-22.59872,1.14434,1.14434,0,0,1,1.03892-.52619c2.2846.02569,4.58174.01284,6.32684.01284a220.36778,220.36778,0,0,1,23.6638,1.82233c5.82619.79563,11.601,1.8351,17.32442,3.20823a114.21555,114.21555,0,0,1,19.67294,6.46775,52.37815,52.37815,0,0,1,12.21695,7.17355,18.54744,18.54744,0,0,1,5.17138,6.10847,7.84805,7.84805,0,0,1-.43612,8.11041,14.62694,14.62694,0,0,1-1.43743,1.88648,26.26427,26.26427,0,0,1-8.05879,5.78765c-1.77079.88539-3.61865,1.59126-5.4026,2.46389a2.987,2.987,0,0,0,2.48951,5.42829c2.554-1.1293,5.13316-2.2586,7.58444-3.58035a26.80975,26.80975,0,0,0,8.96988-7.37892C618.26824,236.49026,618.80774,231.11327,615.80442,225.46676Zm-98.12033-20.60963c-1.46312,2.15591-2.977,4.27337-4.38875,6.44214-1.79648,2.77187-3.50336,5.59512-5.26161,8.39269-.07708.12837-.141.26952-.23059.39781a2.58184,2.58184,0,0,1-.27007.25668c-.05076-.08984-.1153-.17968-.16668-.26944a.72935.72935,0,0,1-.06391-.17968q-2.1759-6.58325-4.32484-13.16657c-.26944-.82133-.23122-.84694.6548-.93678,4.59365-.47481,9.18793-.93685,13.79537-1.41167.03823,0,.07645-.01284.17921-.01284a1.45861,1.45861,0,0,1,.26944.03854A2.364,2.364,0,0,1,517.68409,204.85713Zm12.24264,25.191a9.061,9.061,0,1,0,9.21425-8.91888A9.03883,9.03883,0,0,0,529.92673,230.04812ZM715.25942,109.99633c-.06392-42.32289-14.89883-56.41347-57.83767-56.46477q-150.18349-.17317-300.35447-.03846-150.16375,0-300.341.0513C15.494,53.59571.30005,67.95573.223,108.72589Q-.21971,357.73551.21014,606.7452c.07707,40.68024,15.33525,55.15579,56.51615,55.16863q300.34773.154,600.69546.01285c42.88746-.01285,57.76059-14.16758,57.83767-56.49046Q715.64477,357.71627,715.25942,109.99633ZM664.74929,518.442c0,3.19538-1.14231,6.39076-2.87488,15.39948-26.7561-28.4506-50.16361-53.23093-73.44267-78.11387-25.71719-27.501-51.17747-55.23287-77.03564-82.60547-18.68478-19.80116-29.01565-20.22459-50.4976-3.11839-.66734.5262-1.27013,1.14215-1.93809,1.68111-45.09437,36.80476-45.518,36.80476-84.55555-5.09462-19.24935-20.661-38.28065-41.52726-57.59392-62.12413-29.824-31.81274-46.37828-31.24809-74.803,2.849q-82.19511,98.576-164.14586,197.37c-6.95533,8.35424-14.0905,16.55448-24.47243,28.73289C52.0164,522.0095,50.605,515.73419,50.605,509.44612q-.19268-184.83234-.03854-369.67744c.05139-31.10694,6.13417-37.3181,38.02374-37.35656q269.568-.2888,539.12291.01277c29.28508.03853,36.71538,6.532,36.805,33.50676C664.92849,263.42651,664.78751,390.93422,664.74929,518.442ZM609.95254,218.537a55.39011,55.39011,0,0,0-12.96073-7.96926,120.86523,120.86523,0,0,0-23.35613-7.68689,163.42846,163.42846,0,0,0-18.27436-3.19538c-3.811-.43636-7.62267-.847-11.44685-1.12931-3.311-.25667-6.63451-.32082-9.958-.462-.97563-.05138-1.93809-.06423-2.91309-.10269a1.79977,1.79977,0,0,1-.35968-.077,1.72427,1.72427,0,0,1,.16731-.34651c.2049-.25668.423-.50051.62848-.7571A134.81546,134.81546,0,0,1,552.692,175.94464a57.82265,57.82265,0,0,1,12.75645-7.674,20.16874,20.16874,0,0,1,8.5206-1.88648,7.87258,7.87258,0,0,1,7.23793,4.50436,15.4418,15.4418,0,0,1,1.20622,3.19538,33.85939,33.85939,0,0,1,.334,12.80721c-.20552,1.59135-.552,3.16977-.73187,4.761a2.91681,2.91681,0,0,0,2.41306,3.27237,2.98378,2.98378,0,0,0,3.51589-2.4382,61.483,61.483,0,0,0,1.24506-11.47262,30.39018,30.39018,0,0,0-1.6298-10.71552c-2.37421-6.4806-7.53306-10.04811-14.437-9.9455a25.03076,25.03076,0,0,0-7.44345,1.386,51.709,51.709,0,0,0-12.47324,6.41645,117.81451,117.81451,0,0,0-21.57218,19.31351c-2.96448,3.31091-5.73658,6.80142-8.5983,10.20217a1.31563,1.31563,0,0,1-.7444.43635c-2.98954.19245-5.97971.28229-8.96988.55181-3.72141.34643-7.4303.82125-11.15171,1.2576-.8854.10268-.8854.14114-1.07839-.74433A92.591,92.591,0,0,1,499.025,185.133a45.10884,45.10884,0,0,1,.616-12.03727,16.80453,16.80453,0,0,1,2.75895-6.80142,7.69689,7.69689,0,0,1,5.65951-3.25953,13.89091,13.89091,0,0,1,6.13385,1.00092,35.78349,35.78349,0,0,1,8.958,5.03056c1.116.82125,2.19437,1.70672,3.31036,2.5152a2.721,2.721,0,0,0,2.59227.34651,2.985,2.985,0,0,0,.886-5.21015,50.97818,50.97818,0,0,0-10.66484-7.071,23.443,23.443,0,0,0-10.26632-2.68211,13.59384,13.59384,0,0,0-11.06149,5.23585,20.19887,20.19887,0,0,0-3.72142,7.59706,49.79008,49.79008,0,0,0-1.12977,16.9266,96.87637,96.87637,0,0,0,2.06655,13.57723c.17921.80848.17921.80848-.61595.97531a99.804,99.804,0,0,0-11.24195,2.93871,58.723,58.723,0,0,0-14.078,6.44214,24.9474,24.9474,0,0,0-7.42968,7.04525,13.91,13.91,0,0,0-2.336,10.17649,16.53755,16.53755,0,0,0,3.18254,7.18647,32.90467,32.90467,0,0,0,8.8552,7.94357c1.77079,1.11645,3.593,2.14307,5.42767,3.144a3.003,3.003,0,1,0,2.84918-5.28715c-.51319-.29513-1.05207-.56465-1.56589-.84694a41.827,41.827,0,0,1-7.41714-5.05617,17.49995,17.49995,0,0,1-4.70958-5.89033,7.74878,7.74878,0,0,1,.32083-7.35323,14.0522,14.0522,0,0,1,2.78463-3.42636,32.43932,32.43932,0,0,1,8.66221-5.50537,86.41993,86.41993,0,0,1,18.505-5.74912c.475-.10268.50066.16684.59026.47482a175.46491,175.46491,0,0,0,6.59629,19.36488,1.204,1.204,0,0,1-.05138.84694c-.475,1.001-1.01385,1.96347-1.51388,2.93878a147.92982,147.92982,0,0,0-11.51139,29.05363c-1.77079,6.67313-2.977,13.42325-2.57974,20.36582a25.31188,25.31188,0,0,0,1.97632,8.906,13.94633,13.94633,0,0,0,10.48438,8.61091,20.12082,20.12082,0,0,0,9.27879-.60311,43.03277,43.03277,0,0,0,11.11286-4.97917q2.59886-1.57846,5.04356-3.37506a2.6486,2.6486,0,0,0,.975-2.9644,2.8626,2.8626,0,0,0-2.20691-2.2073,3.19014,3.19014,0,0,0-2.63049.5775c-2.13046,1.36028-4.23524,2.77187-6.44277,4.0167a27.50978,27.50978,0,0,1-10.65106,3.72157c-4.45267.44912-7.815-1.19352-9.57329-5.54382a22.2527,22.2527,0,0,1-1.41175-8.22593,57.19549,57.19549,0,0,1,1.7451-13.92367,135.89068,135.89068,0,0,1,10.93428-29.05371c.07645-.1283.17921-.24383.26945-.37213a2.68682,2.68682,0,0,1,.282.385c1.55273,3.16969,3.02839,6.37792,4.65819,9.4963,7.41777,14.24457,16.13136,27.60359,27.18032,39.34573a75.8651,75.8651,0,0,0,14.52662,12.3324c3.82418,2.41259,7.85388,4.38883,12.42247,4.915,5.90326.68011,10.66422-1.309,14.03912-6.27531a25.25485,25.25485,0,0,0,3.81165-11.15179,63.57856,63.57856,0,0,0-.29513-16.73408,120.61586,120.61586,0,0,0-3.69635-17.4271,187.3131,187.3131,0,0,0-11.51077-29.99049,2.76107,2.76107,0,0,0-.38536-.61595,3.00518,3.00518,0,0,0-5.23592.91108,3.34652,3.34652,0,0,0,.32082,2.618,183.85074,183.85074,0,0,1,7.174,16.96506c3.81164,10.45885,6.78865,21.123,7.77681,32.26194a48.57948,48.57948,0,0,1-.34651,12.65322,18.55363,18.55363,0,0,1-2.64366,7.19924,7.8113,7.8113,0,0,1-5.27414,3.55474,10.83552,10.83552,0,0,1-4.26093-.154,28.04761,28.04761,0,0,1-9.49622-4.36321,77.30952,77.30952,0,0,1-14.50093-12.94836,158.96824,158.96824,0,0,1-17.94037-24.575A205.93993,205.93993,0,0,1,510.67738,228.29a1.11855,1.11855,0,0,1,0-1.11646,211.9583,211.9583,0,0,1,14.66823-22.59872,1.14434,1.14434,0,0,1,1.03892-.52619c2.2846.02569,4.58174.01284,6.32684.01284a220.36778,220.36778,0,0,1,23.6638,1.82233c5.82619.79563,11.601,1.8351,17.32442,3.20823a114.21555,114.21555,0,0,1,19.67294,6.46775,52.37815,52.37815,0,0,1,12.21695,7.17355,18.54744,18.54744,0,0,1,5.17138,6.10847,7.84805,7.84805,0,0,1-.43612,8.11041,14.62694,14.62694,0,0,1-1.43743,1.88648,26.26427,26.26427,0,0,1-8.05879,5.78765c-1.77079.88539-3.61865,1.59126-5.4026,2.46389a2.987,2.987,0,0,0,2.48951,5.42829c2.554-1.1293,5.13316-2.2586,7.58444-3.58035a26.80975,26.80975,0,0,0,8.96988-7.37892c3.79849-5.069,4.338-10.446,1.33467-16.09251A24.08366,24.08366,0,0,0,609.95254,218.537Zm-92.26845-13.67991c-1.46312,2.15591-2.977,4.27337-4.38875,6.44214-1.79648,2.77187-3.50336,5.59512-5.26161,8.39269-.07708.12837-.141.26952-.23059.39781a2.58184,2.58184,0,0,1-.27007.25668c-.05076-.08984-.1153-.17968-.16668-.26944a.72935.72935,0,0,1-.06391-.17968q-2.1759-6.58325-4.32484-13.16657c-.26944-.82133-.23122-.84694.6548-.93678,4.59365-.47481,9.18793-.93685,13.79537-1.41167.03823,0,.07645-.01284.17921-.01284a1.45861,1.45861,0,0,1,.26944.03854A2.364,2.364,0,0,1,517.68409,204.85713Zm12.24264,25.191a9.061,9.061,0,1,0,9.21425-8.91888A9.03883,9.03883,0,0,0,529.92673,230.04812Zm9.21425-8.91888a9.06079,9.06079,0,1,0,8.906,9.17555A9.0638,9.0638,0,0,0,539.141,221.12924Zm76.66344,4.33752a24.08366,24.08366,0,0,0-5.85188-6.92972,55.39011,55.39011,0,0,0-12.96073-7.96926,120.86523,120.86523,0,0,0-23.35613-7.68689,163.42846,163.42846,0,0,0-18.27436-3.19538c-3.811-.43636-7.62267-.847-11.44685-1.12931-3.311-.25667-6.63451-.32082-9.958-.462-.97563-.05138-1.93809-.06423-2.91309-.10269a1.79977,1.79977,0,0,1-.35968-.077,1.72427,1.72427,0,0,1,.16731-.34651c.2049-.25668.423-.50051.62848-.7571A134.81546,134.81546,0,0,1,552.692,175.94464a57.82265,57.82265,0,0,1,12.75645-7.674,20.16874,20.16874,0,0,1,8.5206-1.88648,7.87258,7.87258,0,0,1,7.23793,4.50436,15.4418,15.4418,0,0,1,1.20622,3.19538,33.85939,33.85939,0,0,1,.334,12.80721c-.20552,1.59135-.552,3.16977-.73187,4.761a2.91681,2.91681,0,0,0,2.41306,3.27237,2.98378,2.98378,0,0,0,3.51589-2.4382,61.483,61.483,0,0,0,1.24506-11.47262,30.39018,30.39018,0,0,0-1.6298-10.71552c-2.37421-6.4806-7.53306-10.04811-14.437-9.9455a25.03076,25.03076,0,0,0-7.44345,1.386,51.709,51.709,0,0,0-12.47324,6.41645,117.81451,117.81451,0,0,0-21.57218,19.31351c-2.96448,3.31091-5.73658,6.80142-8.5983,10.20217a1.31563,1.31563,0,0,1-.7444.43635c-2.98954.19245-5.97971.28229-8.96988.55181-3.72141.34643-7.4303.82125-11.15171,1.2576-.8854.10268-.8854.14114-1.07839-.74433A92.591,92.591,0,0,1,499.025,185.133a45.10884,45.10884,0,0,1,.616-12.03727,16.80453,16.80453,0,0,1,2.75895-6.80142,7.69689,7.69689,0,0,1,5.65951-3.25953,13.89091,13.89091,0,0,1,6.13385,1.00092,35.78349,35.78349,0,0,1,8.958,5.03056c1.116.82125,2.19437,1.70672,3.31036,2.5152a2.721,2.721,0,0,0,2.59227.34651,2.985,2.985,0,0,0,.886-5.21015,50.97818,50.97818,0,0,0-10.66484-7.071,23.443,23.443,0,0,0-10.26632-2.68211,13.59384,13.59384,0,0,0-11.06149,5.23585,20.19887,20.19887,0,0,0-3.72142,7.59706,49.79008,49.79008,0,0,0-1.12977,16.9266,96.87637,96.87637,0,0,0,2.06655,13.57723c.17921.80848.17921.80848-.61595.97531a99.804,99.804,0,0,0-11.24195,2.93871,58.723,58.723,0,0,0-14.078,6.44214,24.9474,24.9474,0,0,0-7.42968,7.04525,13.91,13.91,0,0,0-2.336,10.17649,16.53755,16.53755,0,0,0,3.18254,7.18647,32.90467,32.90467,0,0,0,8.8552,7.94357c1.77079,1.11645,3.593,2.14307,5.42767,3.144a3.003,3.003,0,1,0,2.84918-5.28715c-.51319-.29513-1.05207-.56465-1.56589-.84694a41.827,41.827,0,0,1-7.41714-5.05617,17.49995,17.49995,0,0,1-4.70958-5.89033,7.74878,7.74878,0,0,1,.32083-7.35323,14.0522,14.0522,0,0,1,2.78463-3.42636,32.43932,32.43932,0,0,1,8.66221-5.50537,86.41993,86.41993,0,0,1,18.505-5.74912c.475-.10268.50066.16684.59026.47482a175.46491,175.46491,0,0,0,6.59629,19.36488,1.204,1.204,0,0,1-.05138.84694c-.475,1.001-1.01385,1.96347-1.51388,2.93878a147.92982,147.92982,0,0,0-11.51139,29.05363c-1.77079,6.67313-2.977,13.42325-2.57974,20.36582a25.31188,25.31188,0,0,0,1.97632,8.906,13.94633,13.94633,0,0,0,10.48438,8.61091,20.12082,20.12082,0,0,0,9.27879-.60311,43.03277,43.03277,0,0,0,11.11286-4.97917q2.59886-1.57846,5.04356-3.37506a2.6486,2.6486,0,0,0,.975-2.9644,2.8626,2.8626,0,0,0-2.20691-2.2073,3.19014,3.19014,0,0,0-2.63049.5775c-2.13046,1.36028-4.23524,2.77187-6.44277,4.0167a27.50978,27.50978,0,0,1-10.65106,3.72157c-4.45267.44912-7.815-1.19352-9.57329-5.54382a22.2527,22.2527,0,0,1-1.41175-8.22593,57.19549,57.19549,0,0,1,1.7451-13.92367,135.89068,135.89068,0,0,1,10.93428-29.05371c.07645-.1283.17921-.24383.26945-.37213a2.68682,2.68682,0,0,1,.282.385c1.55273,3.16969,3.02839,6.37792,4.65819,9.4963,7.41777,14.24457,16.13136,27.60359,27.18032,39.34573a75.8651,75.8651,0,0,0,14.52662,12.3324c3.82418,2.41259,7.85388,4.38883,12.42247,4.915,5.90326.68011,10.66422-1.309,14.03912-6.27531a25.25485,25.25485,0,0,0,3.81165-11.15179,63.57856,63.57856,0,0,0-.29513-16.73408,120.61586,120.61586,0,0,0-3.69635-17.4271,187.3131,187.3131,0,0,0-11.51077-29.99049,2.76107,2.76107,0,0,0-.38536-.61595,3.00518,3.00518,0,0,0-5.23592.91108,3.34652,3.34652,0,0,0,.32082,2.618,183.85074,183.85074,0,0,1,7.174,16.96506c3.81164,10.45885,6.78865,21.123,7.77681,32.26194a48.57948,48.57948,0,0,1-.34651,12.65322,18.55363,18.55363,0,0,1-2.64366,7.19924,7.8113,7.8113,0,0,1-5.27414,3.55474,10.83552,10.83552,0,0,1-4.26093-.154,28.04761,28.04761,0,0,1-9.49622-4.36321,77.30952,77.30952,0,0,1-14.50093-12.94836,158.96824,158.96824,0,0,1-17.94037-24.575A205.93993,205.93993,0,0,1,510.67738,228.29a1.11855,1.11855,0,0,1,0-1.11646,211.9583,211.9583,0,0,1,14.66823-22.59872,1.14434,1.14434,0,0,1,1.03892-.52619c2.2846.02569,4.58174.01284,6.32684.01284a220.36778,220.36778,0,0,1,23.6638,1.82233c5.82619.79563,11.601,1.8351,17.32442,3.20823a114.21555,114.21555,0,0,1,19.67294,6.46775,52.37815,52.37815,0,0,1,12.21695,7.17355,18.54744,18.54744,0,0,1,5.17138,6.10847,7.84805,7.84805,0,0,1-.43612,8.11041,14.62694,14.62694,0,0,1-1.43743,1.88648,26.26427,26.26427,0,0,1-8.05879,5.78765c-1.77079.88539-3.61865,1.59126-5.4026,2.46389a2.987,2.987,0,0,0,2.48951,5.42829c2.554-1.1293,5.13316-2.2586,7.58444-3.58035a26.80975,26.80975,0,0,0,8.96988-7.37892C618.26824,236.49026,618.80774,231.11327,615.80442,225.46676Zm-98.12033-20.60963c-1.46312,2.15591-2.977,4.27337-4.38875,6.44214-1.79648,2.77187-3.50336,5.59512-5.26161,8.39269-.07708.12837-.141.26952-.23059.39781a2.58184,2.58184,0,0,1-.27007.25668c-.05076-.08984-.1153-.17968-.16668-.26944a.72935.72935,0,0,1-.06391-.17968q-2.1759-6.58325-4.32484-13.16657c-.26944-.82133-.23122-.84694.6548-.93678,4.59365-.47481,9.18793-.93685,13.79537-1.41167.03823,0,.07645-.01284.17921-.01284a1.45861,1.45861,0,0,1,.26944.03854A2.364,2.364,0,0,1,517.68409,204.85713Z" style="fill:#eed9b7"/></svg>