<svg xmlns="http://www.w3.org/2000/svg" viewBox="0 0 1286 1286"><path d="M643,1273.5A630.663,630.663,0,0,1,397.57715,62.05273a630.6602,630.6602,0,0,1,490.8457,1161.89454A626.56539,626.56539,0,0,1,643,1273.5Z" style="fill:#323232"/><path d="M643,25c341.312,0,618,276.688,618,618,0,341.312-276.688,618-618,618C301.688,1261,25,984.312,25,643,25,301.688,301.688,25,643,25m0-25A640.11159,640.11159,0,0,0,283.47522,109.8291,644.8048,644.8048,0,0,0,50.54044,392.70764a642.18592,642.18592,0,0,0,59.28869,609.81714,644.805,644.805,0,0,0,282.87845,232.93478,642.18625,642.18625,0,0,0,609.8172-59.28869,644.80483,644.80483,0,0,0,232.93481-282.87845,642.18625,642.18625,0,0,0-59.28869-609.8172A644.80464,644.80464,0,0,0,893.29236,50.54041,639.00013,639.00013,0,0,0,643,0Z" style="fill:#323232"/><path d="M213.24078,1018.13491c0-2.81418,2.3737-4.88531,5.793-4.88531H241.827V913.31431H219.0338c-3.41932,0-5.793-2.0698-5.793-4.88531,0-2.81417,2.3737-4.88531,5.793-4.88531h58.3131c3.513,0,5.98313,1.90513,5.98313,4.88531,0,2.98153-2.4701,4.88531-5.98313,4.88531H254.83753v99.93529H277.3469c3.513,0,5.98313,1.90512,5.98313,4.88531,0,2.98152-2.4701,4.88531-5.98313,4.88531H219.0338C215.61448,1023.02022,213.24078,1020.95042,213.24078,1018.13491Zm122.73785.49669V909.34073c0-4.22394,3.22787-6.95511,8.07167-6.95511,4.36853,0,6.93369,1.82078,8.92717,5.87871l48.72055,99.85228h.57033l48.53043-99.85228c1.99483-4.05793,4.74875-5.87871,9.11728-5.87871,4.84381,0,8.073,2.73117,8.073,6.95511V1018.6316c0,3.47823-2.28,5.548-6.07818,5.548-3.79954,0-6.07819-2.06979-6.07819-5.548V924.98871h-.57033l-45.39629,92.73251c-1.70966,3.47688-4.08336,4.96831-7.8829,4.96831-3.79819,0-6.26829-1.49143-7.8829-4.8023L348.704,924.98871h-.569v93.64289c0,3.47823-2.37505,5.548-6.07819,5.548C338.25728,1024.17962,335.97863,1022.10983,335.97863,1018.6316Zm185.42752-56.05319c0-37.01,24.12264-60.9385,61.54231-60.9385,25.07185,0,45.49134,11.59139,52.70885,28.89682a13.38082,13.38082,0,0,1,1.23438,5.46367c0,3.1462-2.27865,5.216-5.88807,5.216-3.22921,0-5.22269-1.40709-6.74358-4.8023-6.64718-15.40031-21.84264-24.2592-41.31158-24.2592-29.72688,0-48.24661,19.29222-48.24661,50.42351,0,31.54632,18.89995,51.8306,48.24661,51.8306,26.49634,0,43.97179-14.7376,43.97179-37.25768v-4.2226H589.31181c-3.70448,0-6.2683-1.98813-6.2683-4.96831s2.56382-4.96832,6.2683-4.96832h44.06551c3.98965,0,6.45841,2.23581,6.45841,5.87871v5.631c0,31.545-21.27365,50.42217-56.88727,50.42217C545.814,1024.924,521.40615,1000.25112,521.40615,962.57841Zm245.66851,55.72251V909.4224c0-3.6429,2.46876-5.87871,6.45707-5.87871h69.80542c3.79686,0,6.2683,2.07114,6.2683,5.13433,0,2.98019-2.47144,5.133-6.2683,5.133h-63.347V958.6865H837.923c3.70314,0,6.1719,1.98813,6.1719,5.05132,0,2.98018-2.46876,5.05-6.1719,5.05H779.99013v49.51312c0,3.64289-2.46876,5.8787-6.4584,5.8787C769.54342,1024.17962,767.07466,1021.94381,767.07466,1018.30092Zm134.04007,0V908.26433c0-3.64424,2.46876-5.87871,6.4584-5.87871s6.45841,2.23447,6.45841,5.87871v110.03659c0,3.64289-2.46876,5.8787-6.45841,5.8787S901.11473,1021.94381,901.11473,1018.30092Zm66.31917.99339a5.88959,5.88959,0,0,1,1.52088-3.7259l43.02258-52.32729v-.41369l-42.35853-51.33524a5.78774,5.78774,0,0,1-1.52088-3.89057c0-2.89852,2.94537-5.216,6.64851-5.216,2.5665,0,3.89459.74438,5.88942,3.31088l39.69832,48.60273h.47661l40.07587-48.85041c1.80471-2.23581,3.13549-3.0632,5.60425-3.0632,3.513,0,6.26829,2.15281,6.26829,4.884a5.41437,5.41437,0,0,1-1.52088,3.72591l-43.40146,52.32863v.33068l42.5473,51.66592a5.56055,5.56055,0,0,1,1.42449,3.6429c0,2.89718-2.9427,5.216-6.55212,5.216a6.36383,6.36383,0,0,1-5.60425-2.89852l-39.792-48.7674h-.47661l-39.98215,48.60273c-1.99483,2.31748-3.22921,3.06319-5.60291,3.06319C970.18916,1024.17962,967.4339,1022.02682,967.4339,1019.29431Zm-188.07749-640.867c-1.35724,0-3.14315.01008-4.92877-.00828a.89192.89192,0,0,0-.80894.413,164.83531,164.83531,0,0,0-11.42984,17.61284.86939.86939,0,0,0-.00257.86508,159.68863,159.68863,0,0,0,9.91356,19.31246,123.805,123.805,0,0,0,13.97993,19.14494,60.5013,60.5013,0,0,0,11.30168,10.09741,21.82322,21.82322,0,0,0,7.396,3.39457,8.47165,8.47165,0,0,0,3.323.1257,6.10819,6.10819,0,0,0,4.10579-2.77207,14.29078,14.29078,0,0,0,2.05877-5.61326,37.48683,37.48683,0,0,0,.27106-9.8564,98.93915,98.93915,0,0,0-6.05267-25.14578c-1.63678-4.50246-3.52475-8.9-5.59036-13.22181a2.5969,2.5969,0,0,1-.25294-2.03609,2.34435,2.34435,0,0,1,4.08209-.71215,2.61963,2.61963,0,0,1,.29822.47971,147.18334,147.18334,0,0,1,8.97345,23.3719,94.98338,94.98338,0,0,1,2.8773,13.5822,49.40221,49.40221,0,0,1,.22732,13.04005,19.71462,19.71462,0,0,1-2.96835,8.68986,10.82745,10.82745,0,0,1-10.93743,4.88526,23.10893,23.10893,0,0,1-9.68336-3.82743,58.96914,58.96914,0,0,1-11.31912-9.608,135.277,135.277,0,0,1-21.18368-30.66188c-1.26813-2.43381-2.41761-4.92939-3.62586-7.3945a1.98263,1.98263,0,0,0-.22606-.302,2.25941,2.25941,0,0,0-.20132.287,105.84126,105.84126,0,0,0-8.52285,22.63781,44.59623,44.59623,0,0,0-1.366,10.85294,17.47021,17.47021,0,0,0,1.10192,6.40574c1.373,3.39819,3.99066,4.67582,7.46381,4.32206a21.37487,21.37487,0,0,0,8.30148-2.89926c1.71782-.96544,3.35964-2.06772,5.02024-3.13251a2.5017,2.5017,0,0,1,2.04386-.44893,2.2405,2.2405,0,0,1,1.72716,1.72478,2.07563,2.07563,0,0,1-.7594,2.30607c-1.27307.93046-2.58876,1.80971-3.93409,2.63276a33.4007,33.4007,0,0,1-8.66182,3.881,15.72574,15.72574,0,0,1-7.23118.46423,10.85792,10.85792,0,0,1-8.16379-6.70206,19.70569,19.70569,0,0,1-1.54378-6.947,50.05028,50.05028,0,0,1,2.01266-15.866,115.13129,115.13129,0,0,1,8.97138-22.6387c.39026-.76411.80809-1.51467,1.17721-2.28865a.91842.91842,0,0,0,.03636-.66205,137.30635,137.30635,0,0,1-5.14009-15.09386c-.06458-.236-.08733-.44459-.46013-.36716a66.90843,66.90843,0,0,0-14.41821,4.482,25.31549,25.31549,0,0,0-6.753,4.28922,10.86576,10.86576,0,0,0-2.168,2.66645,6.06391,6.06391,0,0,0-.24824,5.73268,13.65084,13.65084,0,0,0,3.66588,4.59335,33.20328,33.20328,0,0,0,5.78008,3.93209c.40473.22558.822.429,1.22309.66065a2.33014,2.33014,0,0,1,.9425,3.19463,2.30564,2.30564,0,0,1-3.15786.92674c-1.4334-.77431-2.85809-1.57381-4.23-2.45082a25.32807,25.32807,0,0,1-6.90027-6.19268,12.7531,12.7531,0,0,1-2.4799-5.59408,10.84693,10.84693,0,0,1,1.81354-7.93508,19.65057,19.65057,0,0,1,5.79456-5.48584,45.50727,45.50727,0,0,1,10.96723-5.01956,77.98366,77.98366,0,0,1,8.75836-2.2902c.621-.12628.623-.12652.48474-.763a76.368,76.368,0,0,1-1.61278-10.57513,38.59887,38.59887,0,0,1,.88507-13.18885,15.80477,15.80477,0,0,1,2.89506-5.92378,10.5993,10.5993,0,0,1,8.62248-4.07591,18.32286,18.32286,0,0,1,8.00071,2.0816,39.945,39.945,0,0,1,8.30293,5.51162,2.32376,2.32376,0,0,1-.68892,4.05914,2.10822,2.10822,0,0,1-2.01418-.262c-.8721-.63863-1.7093-1.32484-2.58041-1.96488a27.98687,27.98687,0,0,0-6.97771-3.92288,10.87746,10.87746,0,0,0-4.78607-.7752,5.98831,5.98831,0,0,0-4.40808,2.53888,13.11659,13.11659,0,0,0-2.15251,5.29912,35.26027,35.26027,0,0,0-.47819,9.38379,72.0406,72.0406,0,0,0,1.61315,10.93763c.15106.68789.14495.65684.8383.57526,2.89642-.34081,5.79086-.70945,8.69461-.97343,2.32345-.21123,4.65982-.27842,6.98875-.435a.95289.95289,0,0,0,.57335-.33979c2.23784-2.64843,4.39217-5.371,6.70457-7.95213a91.4176,91.4176,0,0,1,16.80708-15.04115,40.0075,40.0075,0,0,1,9.72505-5.001,19.28161,19.28161,0,0,1,5.79652-1.08428,11.16195,11.16195,0,0,1,11.25294,7.74771,23.72534,23.72534,0,0,1,1.26816,8.35179,47.74451,47.74451,0,0,1-.97082,8.94307,2.3307,2.3307,0,0,1-2.74069,1.90151,2.27467,2.27467,0,0,1-1.87618-2.55339c.13937-1.243.40809-2.47116.56449-3.71282a26.41159,26.41159,0,0,0-.26-9.97544,12.48361,12.48361,0,0,0-.93691-2.49655,6.12935,6.12935,0,0,0-5.64275-3.50166,15.76325,15.76325,0,0,0-6.6358,1.46235,44.73807,44.73807,0,0,0-9.94093,5.98681,105.18223,105.18223,0,0,0-16.52852,16.25571c-.16525.19754-.33541.3913-.49284.59489a1.42047,1.42047,0,0,0-.12932.263,1.39554,1.39554,0,0,0,.28062.0686c.755.02717,1.51061.03825,2.26532.07095,2.58973.11218,5.1839.16865,7.76748.364,2.97649.225,5.94795.53689,8.9137.87943a128.06341,128.06341,0,0,1,14.239,2.49307,93.72613,93.72613,0,0,1,18.20223,5.99163,43.17472,43.17472,0,0,1,10.10532,6.20328,18.75652,18.75652,0,0,1,4.55633,5.4024,10.92187,10.92187,0,0,1-1.04427,12.544,20.88268,20.88268,0,0,1-6.98754,5.7497c-1.91413,1.03067-3.91563,1.90459-5.905,2.788a2.30719,2.30719,0,0,1-3.03771-1.17547,2.27959,2.27959,0,0,1,1.09175-3.05639c1.38729-.67536,2.83392-1.23,4.2138-1.91913a20.67543,20.67543,0,0,0,6.28008-4.50974,10.97811,10.97811,0,0,0,1.1192-1.47332,6.112,6.112,0,0,0,.33789-6.31828,14.47372,14.47372,0,0,0-4.03281-4.75532,41.05163,41.05163,0,0,0-9.51437-5.59389,89.104,89.104,0,0,0-15.33275-5.03464,134.59164,134.59164,0,0,0-13.50394-2.50735A172.98867,172.98867,0,0,0,779.35641,378.42728Zm-11.76263.2387c-.08121.009-.11529.013-.14942.01644q-5.37168.546-10.74313,1.09407c-.69176.07122-.71836.09338-.51038.73291q1.66929,5.133,3.36381,10.2578a.87449.87449,0,0,0,.05431.144c.039.07215.08558.14018.129.20995a1.72031,1.72031,0,0,0,.20994-.20163c.07164-.09527.12074-.20712.18432-.30884,1.36332-2.18117,2.701-4.379,4.0996-6.5373,1.10021-1.69781,2.277-3.346,3.415-5.0194a1.91329,1.91329,0,0,0,.15-.35705Zm23.71493,20.21112a7.06085,7.06085,0,1,0-7.10394,6.972A7.05459,7.05459,0,0,0,791.30871,398.8771ZM642.49282,261.10016q117.02266-.00176,234.04546.02815c33.458.03946,45.02286,11.02165,45.07258,43.99869q.29133,193.037-.00611,386.07471c-.052,32.98016-11.64266,44.00718-45.0611,44.02117q-234.04552.09794-468.09092-.00959c-32.09836-.0168-43.98434-11.29294-44.0398-42.99791q-.33915-194.03707.00764-388.075c.05808-31.76571,11.89826-42.95537,44.02678-43.00209Q525.46984,260.96805,642.49282,261.10016ZM880.01114,635.411c1.34439-7.02384,2.23621-9.51193,2.237-12.0002.032-99.35793.14242-198.71641-.18311-298.07336-.06889-21.01777-5.852-26.07981-28.67631-26.10629q-210.05265-.2436-420.10585-.01292c-24.85593.02688-29.59854,4.86734-29.6289,29.111q-.18039,144.03639.02083,288.073c.00507,4.896,1.10271,9.79086,2.17135,18.67456,8.09253-9.48865,13.65783-15.8759,19.07448-22.38683q63.96477-76.88862,127.90372-153.79872c22.15041-26.56634,35.05061-27.01409,58.29647-2.22137,15.05005,16.05162,29.87851,32.31065,44.87823,48.40973,30.42477,32.65475,30.75165,32.65469,65.89167,3.97074.51621-.42142.9882-.8975,1.50917-1.31244,16.74367-13.33133,24.78887-12.99591,39.35386,2.42963,20.14165,21.33176,39.98561,42.94435,60.02747,64.37078C840.923,593.93347,859.15931,613.24,880.01114,635.411Z" style="fill:#eed9b7"/></svg>